# xmcd CD database file
#
# Track frame offsets:
#	150
#	18319
#	41723
#	59023
#	72558
#	95541
#	114812
#	130802
#	149076
#	166161
#	182663
#	200572
#	218745
#	238247
#	251783
#
# Disc length: 3593 seconds
#
# Revision: 5
# Processed by: cddbd v1.4PL0 Copyright (c) Steve Scherf et al.
# Submitted via: CDex 1.50beta9
#
DISCID=e60e070f
DTITLE=i瓣a - 光荣岁月
DYEAR=1900
DGENRE=Blues
TTITLE0=为你钟情
TTITLE1=风继续吹
TTITLE2=Monica
TTITLE3=柔情蜜意
TTITLE4=谁令你心痴
TTITLE5=当年情
TTITLE6=黑色午夜
TTITLE7=我愿意
TTITLE8=不羁的风
TTITLE9=一片痴
TTITLE10=少女心事
TTITLE11=分手
TTITLE12=片段
TTITLE13=恋爱交叉
TTITLE14=只怕不再遇上
EXTD=
EXTT0=
EXTT1=
EXTT2=
EXTT3=
EXTT4=
EXTT5=
EXTT6=
EXTT7=
EXTT8=
EXTT9=
EXTT10=
EXTT11=
EXTT12=
EXTT13=
EXTT14=
PLAYORDER=
